<svg width="256" height="256" viewBox="0 0 256 256" fill="none" xmlns="http://www.w3.org/2000/svg">
  <defs>
    <linearGradient id="bg" x1="32" y1="24" x2="222" y2="232" gradientUnits="userSpaceOnUse">
      <stop stop-color="#FFA43B"/>
      <stop offset="0.55" stop-color="#FF7A39"/>
      <stop offset="1" stop-color="#E53E6A"/>
    </linearGradient>
    <linearGradient id="glass" x1="66" y1="40" x2="196" y2="216" gradientUnits="userSpaceOnUse">
      <stop stop-color="white" stop-opacity="0.2"/>
      <stop offset="1" stop-color="white" stop-opacity="0"/>
    </linearGradient>
    <linearGradient id="arrow" x1="172" y1="82" x2="212" y2="174" gradientUnits="userSpaceOnUse">
      <stop stop-color="#FFFFFF"/>
      <stop offset="1" stop-color="#E8EDF7"/>
    </linearGradient>
  </defs>
  <rect x="16" y="16" width="224" height="224" rx="48" fill="url(#bg)"/>
  <path d="M60 34C74 70 91 104 126 217H16V16H108C92 32 77 37 60 34Z" fill="#FFB14E" fill-opacity="0.42"/>
  <path d="M164 22C184 70 213 106 240 138V24C236 20 232 16 226 16H150C155 18 160 20 164 22Z" fill="#F15B6C" fill-opacity="0.28"/>
  <path d="M112 66L162 190L122 240H80L56 212L84 116L112 66Z" fill="#A8274C" fill-opacity="0.42"/>
  <rect x="16" y="16" width="224" height="224" rx="48" fill="url(#glass)"/>
  <path d="M181 76L220 128L181 180C176 186 167 180 170 172L186 130L170 84C167 76 176 70 181 76Z" fill="url(#arrow)"/>
  <path d="M170 84L186 130L170 172C167 180 176 186 181 180L220 128L181 76C176 70 167 76 170 84Z" fill="#D1D9E8" fill-opacity="0.62"/>
  <path d="M66.48 146.44C61.04 146.44 56.76 145.24 53.64 142.84C50.52 140.36 48.96 136.72 48.96 131.92C48.96 127.28 50.48 123.6 53.52 120.88C56.56 118.16 60.88 116.8 66.48 116.8H73.56V111.88C73.56 109.24 72.76 107.28 71.16 106C69.56 104.64 67 103.96 63.48 103.96C60.68 103.96 58.08 104.4 55.68 105.28C53.28 106.16 50.84 107.44 48.36 109.12V95.92C50.92 94.4 53.8 93.24 57 92.44C60.2 91.56 63.64 91.12 67.32 91.12C76.04 91.12 82.48 92.96 86.64 96.64C90.8 100.24 92.88 105.92 92.88 113.68V145H78.12L75.84 139.48C74.16 141.64 72.04 143.36 69.48 144.64C67 145.84 64.68 146.44 62.52 146.44H66.48ZM72.12 128.44C73.72 128.44 75.2 128.16 76.56 127.6V123.52H70.8C67.2 123.52 65.4 124.8 65.4 127.36C65.4 128.4 65.72 129.2 66.36 129.76C67.08 130.24 68.16 130.48 69.6 130.48C70.32 130.48 71.16 129.8 72.12 128.44Z" fill="white"/>
  <path d="M98.72 91.96H116.84V99.4C118.36 96.6 120.56 94.44 123.44 92.92C126.4 91.4 129.64 90.64 133.16 90.64C139.64 90.64 144.68 92.76 148.28 97C151.96 101.24 153.8 107.28 153.8 115.12C153.8 123.36 151.76 129.88 147.68 134.68C143.68 139.4 138.36 141.76 131.72 141.76C128.92 141.76 126.32 141.36 123.92 140.56C121.6 139.68 119.64 138.48 118.04 136.96V164.44H98.72V91.96ZM126.68 125.2C129.16 125.2 131.08 124.32 132.44 122.56C133.88 120.8 134.6 118.28 134.6 115C134.6 111.88 133.92 109.48 132.56 107.8C131.28 106.12 129.4 105.28 126.92 105.28C125.56 105.28 124.28 105.56 123.08 106.12C121.88 106.6 120.76 107.36 119.72 108.4V122.92C120.68 123.64 121.72 124.24 122.84 124.72C123.96 125.04 125.24 125.2 126.68 125.2Z" fill="white"/>
  <path d="M156.58 127.24C160.18 129.24 164.06 130.24 168.22 130.24C170.06 130.24 171.42 130.04 172.3 129.64C173.26 129.24 173.74 128.6 173.74 127.72C173.74 126.92 173.26 126.32 172.3 125.92C171.34 125.44 169.62 124.92 167.14 124.36C163.3 123.48 160.18 122.52 157.78 121.48C155.38 120.44 153.58 119 152.38 117.16C151.26 115.32 150.7 112.96 150.7 110.08C150.7 104.8 152.54 100.64 156.22 97.6C159.9 94.56 165.1 93.04 171.82 93.04C175.1 93.04 178.18 93.36 181.06 94C183.94 94.64 186.54 95.56 188.86 96.76V109.12C186.46 107.68 184.02 106.64 181.54 106C179.14 105.28 176.86 104.92 174.7 104.92C171.5 104.92 169.9 105.68 169.9 107.2C169.9 107.92 170.34 108.48 171.22 108.88C172.1 109.28 173.74 109.72 176.14 110.2C180.22 111.08 183.42 112.08 185.74 113.2C188.14 114.24 189.9 115.68 191.02 117.52C192.14 119.36 192.7 121.76 192.7 124.72C192.7 130.08 190.7 134.28 186.7 137.32C182.78 140.36 177.14 141.88 169.78 141.88C166.18 141.88 162.7 141.48 159.34 140.68C156.06 139.8 153.66 138.76 152.14 137.56V124.72C153.74 125.68 155.22 126.52 156.58 127.24Z" fill="white"/>
  <path d="M197.23 127.24C200.83 129.24 204.71 130.24 208.87 130.24C210.71 130.24 212.07 130.04 212.95 129.64C213.91 129.24 214.39 128.6 214.39 127.72C214.39 126.92 213.91 126.32 212.95 125.92C211.99 125.44 210.27 124.92 207.79 124.36C203.95 123.48 200.83 122.52 198.43 121.48C196.03 120.44 194.23 119 193.03 117.16C191.91 115.32 191.35 112.96 191.35 110.08C191.35 104.8 193.19 100.64 196.87 97.6C200.55 94.56 205.75 93.04 212.47 93.04C215.75 93.04 218.83 93.36 221.71 94C224.59 94.64 227.19 95.56 229.51 96.76V109.12C227.11 107.68 224.67 106.64 222.19 106C219.79 105.28 217.51 104.92 215.35 104.92C212.15 104.92 210.55 105.68 210.55 107.2C210.55 107.92 210.99 108.48 211.87 108.88C212.75 109.28 214.39 109.72 216.79 110.2C220.87 111.08 224.07 112.08 226.39 113.2C228.79 114.24 230.55 115.68 231.67 117.52C232.79 119.36 233.35 121.76 233.35 124.72C233.35 130.08 231.35 134.28 227.35 137.32C223.43 140.36 217.79 141.88 210.43 141.88C206.83 141.88 203.35 141.48 199.99 140.68C196.71 139.8 194.31 138.76 192.79 137.56V124.72C194.39 125.68 195.87 126.52 197.23 127.24Z" fill="white"/>
</svg>
