<svg width="512" height="512" viewBox="0 0 512 512" fill="none" xmlns="http://www.w3.org/2000/svg">
  <defs>
    <linearGradient id="epassBg" x1="20" y1="28" x2="468" y2="484" gradientUnits="userSpaceOnUse">
      <stop stop-color="#FF9C2F"/>
      <stop offset="0.55" stop-color="#FF7B33"/>
      <stop offset="1" stop-color="#EF456B"/>
    </linearGradient>
    <linearGradient id="epassArrow" x1="332" y1="190" x2="428" y2="334" gradientUnits="userSpaceOnUse">
      <stop stop-color="white"/>
      <stop offset="1" stop-color="#E4EAF3"/>
    </linearGradient>
  </defs>
  <rect x="20" y="20" width="472" height="472" rx="88" fill="url(#epassBg)"/>
  <path d="M32 24H174L288 486H32V24Z" fill="#FFBB53" fill-opacity="0.35"/>
  <path d="M330 20H492V188L404 260L330 20Z" fill="#D73C67" fill-opacity="0.28"/>
  <path d="M188 154L292 426L228 492H134L94 432L148 258L188 154Z" fill="#B32D50" fill-opacity="0.42"/>
  <path d="M318 78L478 244L318 426V78Z" fill="#FFB04C" fill-opacity="0.82"/>
  <path d="M355 176L420 256L355 336C346 347 328 337 332 323L356 257L332 189C328 176 346 165 355 176Z" fill="url(#epassArrow)"/>
  <path d="M344 188L366 257L344 324C340 336 351 345 361 339L420 256L361 173C351 167 340 176 344 188Z" fill="#D5DDEA" fill-opacity="0.8"/>
  <path d="M90 288.6C90 257.48 111.08 238.6 141.44 238.6C162.16 238.6 179.68 247.36 189.76 262.28L163.84 279.08C158.56 271.16 150.76 266.96 141.08 266.96C126.52 266.96 117.16 275.84 117.16 288.6C117.16 301.24 126.64 310.12 141.08 310.12C150.76 310.12 158.56 305.92 163.84 298L189.76 314.8C179.68 329.72 162.16 338.48 141.44 338.48C111.08 338.48 90 319.6 90 288.6ZM198.72 224.2H224.52V244.72C231.12 229.36 244.2 221.44 259.92 221.44C282.72 221.44 298.2 237.64 298.2 263.44C298.2 289.24 282.72 305.56 259.92 305.56C246.36 305.56 234.84 300.52 228.72 291.36V337.4H198.72V224.2ZM248.4 282.76C260.64 282.76 268.56 274.36 268.56 263.44C268.56 252.4 260.64 244.12 248.4 244.12C243 244.12 238.2 245.8 234 249.16V277.72C238.32 281.08 243.12 282.76 248.4 282.76Z" fill="white"/>
  <path d="M300.2 279.88L326.72 275.68C329.12 283.6 336.2 288.28 346.4 288.28C355.4 288.28 360.32 285.64 360.32 280.84C360.32 276.64 356.96 274.72 348.44 273.4L337.16 271.6C315.08 268.24 304.76 258.16 304.76 241.96C304.76 220.84 323.84 208.72 348.68 208.72C372.68 208.72 389 219.16 394.4 237.04L368.24 241.24C365.72 234.52 359.84 230.68 349.88 230.68C341.84 230.68 337.4 233.56 337.4 237.88C337.4 242.2 341.36 244 349.4 245.2L360.56 247C383.6 250.48 393.56 259.48 393.56 275.92C393.56 297.4 374 310.24 346.16 310.24C320 310.24 304.76 299.92 300.2 279.88Z" fill="white"/>
</svg>
